<?xml version="1.0" standalone="no"?>
<!DOCTYPE svg PUBLIC "-//W3C//DTD SVG 20010904//EN"
 "http://www.w3.org/TR/2001/REC-SVG-20010904/DTD/svg10.dtd">
<svg version="1.0" xmlns="http://www.w3.org/2000/svg"
 width="1240.000000pt" height="1240.000000pt" viewBox="0 0 1240.000000 1240.000000"
 preserveAspectRatio="xMidYMid meet">
<metadata>
Created by potrace 1.14, written by Peter Selinger 2001-2017
</metadata>
<g transform="translate(0.000000,1240.000000) scale(0.100000,-0.100000)"
fill="#000000" stroke="none">
<path d="M6955 10554 c-567 -56 -967 -162 -1420 -379 -542 -259 -1000 -623
-1394 -1107 -39 -49 -71 -90 -71 -92 0 -3 282 -6 628 -9 590 -4 634 -5 742
-26 240 -45 383 -90 567 -180 221 -108 395 -233 591 -425 264 -258 478 -550
812 -1111 421 -706 515 -854 685 -1065 349 -437 716 -654 1140 -676 151 -8
229 -32 294 -90 146 -131 158 -340 26 -482 -35 -38 -74 -68 -107 -83 l-53 -24
-1252 -3 -1251 -2 -58 21 c-71 27 -146 95 -181 163 -94 185 1 415 195 472 31
9 64 19 72 23 8 3 -293 8 -670 11 l-685 5 -67 33 c-119 58 -188 166 -190 296
-1 78 14 130 53 189 52 79 137 133 239 153 50 10 -1295 21 -1924 16 l-378 -3
6 -57 c35 -302 128 -675 238 -957 409 -1046 1227 -1864 2273 -2273 298 -116
639 -199 1005 -244 141 -17 709 -17 850 0 366 45 706 127 1005 244 1309 510
2257 1673 2484 3048 40 246 46 329 46 655 0 326 -6 409 -46 655 -163 988 -715
1903 -1510 2502 -580 436 -1197 687 -1929 784 -119 15 -660 28 -765 18z"/>
<path d="M782 8273 c-73 -36 -120 -125 -107 -204 9 -51 54 -111 101 -135 38
-19 88 -19 2099 -19 1919 0 2062 1 2091 17 46 25 92 82 100 123 17 90 -23 177
-98 214 l-44 21 -2055 0 c-1866 0 -2057 -2 -2087 -17z"/>
<path d="M2042 7209 c-67 -33 -97 -86 -97 -170 0 -60 3 -71 31 -106 17 -21 46
-47 65 -58 34 -20 52 -20 1989 -20 1075 0 1967 3 1982 8 38 10 98 65 114 104
28 65 13 152 -35 207 -9 10 -33 27 -53 37 -36 18 -94 19 -1995 19 l-1958 0
-43 -21z"/>
</g>
</svg>
